<?xml version="1.0" encoding="utf-8"?>
<!-- Svg Vector Icons : http://www.onlinewebfonts.com/icon -->
<!DOCTYPE svg PUBLIC "-//W3C//DTD SVG 1.1//EN" "http://www.w3.org/Graphics/SVG/1.1/DTD/svg11.dtd">
<svg version="1.1" xmlns="http://www.w3.org/2000/svg" xmlns:xlink="http://www.w3.org/1999/xlink" x="0px" y="0px" viewBox="0 0 1000 1000" enable-background="new 0 0 1000 1000" xml:space="preserve">
<metadata> Svg Vector Icons : http://www.onlinewebfonts.com/icon </metadata>
<g><path d="M989.9,367.4C989,214.1,872.4,93.8,723.8,93.8c-83.7,0-165.5,37.6-218.2,98.7C453.9,130.5,377.8,93.8,295,93.8c-154.2,0-284,125.1-284.9,273.6c-0.9,28.2-4.7,328.2,474.9,536c4.7,1.9,9.4,2.8,15,2.8s10.3-0.9,15-2.8C994.6,695.6,990.8,395.6,989.9,367.4z M500,827.2C75,638.2,84.4,382.5,85.3,372.1c0-0.9,0-1.9,0-2.8C85.3,260.2,181.2,169,295,169c74.3,0,142,41.4,176.8,107.2c6.6,12.2,19.7,19.7,32.9,19.7c14.1,0,27.3-7.5,32.9-19.7C572.4,212.3,646.7,169,723.8,169c108.1,0,190.9,85.6,190.9,200.3c0,0.9,0,1.9,0,2.8C915.6,382.5,925,638.2,500,827.2z"/><path d="M669.3,431.4l-142.9,142c-7.5,7.5-16.9,11.3-26.3,11.3s-18.8-3.8-26.3-11.3L361.8,461.4c-15-15-15-38.6,0-53.6c15-15,38.6-15,53.6,0l85.6,85.6l115.7-115.7c15-15,38.6-15,53.6,0C684.3,392.8,684.3,416.3,669.3,431.4z"/></g>
</svg>